<?xml version="1.0" standalone="no"?>
<!DOCTYPE svg PUBLIC "-//W3C//DTD SVG 20010904//EN"
 "http://www.w3.org/TR/2001/REC-SVG-20010904/DTD/svg10.dtd">
<svg version="1.0" xmlns="http://www.w3.org/2000/svg"
 width="1442.000000pt" height="1442.000000pt" viewBox="0 0 1442.000000 1442.000000"
 preserveAspectRatio="xMidYMid meet">
<metadata>
Created by potrace 1.14, written by Peter Selinger 2001-2017
</metadata>
<g transform="translate(0.000000,1442.000000) scale(0.100000,-0.100000)"
fill="#000000" stroke="none">
<path d="M2758 14415 c-2 -1 -34 -5 -73 -9 -291 -25 -619 -133 -883 -288 -75
-45 -209 -134 -222 -148 -3 -3 -37 -31 -77 -63 -97 -79 -253 -242 -340 -357
-240 -318 -387 -691 -432 -1095 -6 -46 -9 -2272 -9 -5250 -1 -5619 -4 -5237
54 -5505 62 -290 211 -603 403 -850 366 -472 922 -781 1511 -837 103 -10 6726
-10 6875 0 66 5 129 10 140 12 11 2 47 7 80 10 57 6 312 48 365 60 14 3 36 8
50 11 166 32 564 156 708 220 29 13 55 24 58 24 7 0 95 41 249 115 771 374
1453 1015 1890 1775 155 269 270 526 370 826 43 128 107 363 120 434 3 17 12
61 19 98 8 37 17 83 20 102 3 19 7 44 10 55 4 22 12 84 21 155 3 25 8 61 10
80 28 211 27 713 -1 965 -19 180 -62 421 -105 590 -31 123 -93 334 -109 370
-5 11 -12 31 -16 45 -10 37 -96 254 -135 340 -58 128 -155 315 -221 425 -35
59 -67 114 -73 123 -36 61 -207 305 -262 372 -254 318 -480 541 -819 808 -177
140 -474 321 -764 466 -294 146 -374 205 -494 361 -75 98 -76 101 -125 200
-73 151 -104 291 -104 470 -1 229 48 391 189 630 36 61 102 190 143 280 64
138 147 404 180 575 23 122 34 195 48 335 8 84 7 388 -1 465 -14 125 -27 224
-37 273 -6 29 -12 63 -15 77 -14 75 -71 270 -110 378 -214 590 -618 1088
-1168 1439 -241 154 -625 313 -889 369 -12 3 -42 9 -67 14 -25 5 -54 11 -65
14 -11 2 -63 9 -115 16 -52 6 -106 14 -120 17 -22 5 -5656 13 -5662 8z m4807
-2099 c44 -8 105 -22 135 -31 30 -9 62 -17 70 -20 36 -8 187 -78 253 -117 185
-107 264 -191 313 -333 22 -65 27 -177 10 -240 -11 -40 -110 -282 -201 -490
-7 -16 -30 -70 -50 -120 -20 -49 -41 -99 -46 -110 -14 -34 -83 -199 -194 -470
-59 -143 -115 -278 -125 -300 -10 -22 -21 -51 -25 -65 -4 -14 -45 -113 -90
-220 -92 -219 -93 -221 -113 -353 -10 -63 -8 -199 4 -256 4 -20 8 -43 9 -51 3
-21 23 -94 45 -165 10 -33 28 -91 39 -130 11 -38 52 -176 90 -305 38 -129 97
-323 131 -430 34 -107 84 -267 112 -355 72 -231 98 -313 178 -565 40 -124 82
-259 95 -300 31 -102 85 -272 92 -290 7 -18 7 -15 21 -66 21 -71 149 -456 177
-529 70 -184 148 -275 350 -406 184 -120 386 -251 716 -464 110 -71 336 -220
502 -329 166 -110 338 -221 382 -248 107 -65 160 -118 200 -203 66 -140 76
-268 29 -395 -97 -269 -234 -459 -475 -655 -104 -85 -314 -203 -484 -272 -59
-24 -216 -81 -245 -88 -8 -2 -62 -17 -120 -34 -90 -26 -279 -70 -360 -85 -14
-3 -47 -9 -75 -15 -27 -5 -70 -12 -95 -16 -25 -3 -56 -8 -70 -10 -14 -2 -45
-6 -70 -10 -25 -3 -61 -8 -80 -10 -66 -10 -110 -14 -192 -20 -46 -3 -96 -8
-113 -10 -151 -18 -812 -25 -1160 -11 -279 11 -513 24 -555 31 -14 2 -70 7
-125 11 -55 3 -107 8 -117 9 -9 2 -53 6 -98 10 -45 4 -90 8 -100 10 -11 2 -50
7 -87 10 -37 4 -75 8 -83 10 -8 2 -46 7 -85 11 -38 3 -77 8 -85 9 -9 2 -43 6
-75 10 -33 4 -68 9 -79 11 -10 2 -44 6 -75 10 -31 3 -63 7 -71 9 -8 1 -40 6
-70 10 -30 4 -62 9 -70 10 -30 6 -166 25 -215 30 -27 3 -138 8 -245 10 -107 3
-217 7 -245 10 -64 7 -162 53 -207 96 -29 29 -155 192 -208 269 -8 13 -19 28
-25 34 -5 6 -37 47 -69 91 -33 44 -62 82 -65 85 -3 3 -46 58 -94 122 -48 64
-94 124 -102 132 -8 8 -15 17 -15 20 0 3 -47 65 -104 138 -131 168 -162 217
-187 298 -22 69 -31 200 -18 260 4 19 10 55 13 80 3 25 7 54 10 65 2 11 6 41
10 66 4 25 9 57 11 70 33 203 32 211 -61 505 -31 98 -81 258 -111 354 -30 96
-77 247 -105 335 -27 88 -65 210 -84 270 -41 129 -40 126 -58 190 -8 28 -33
109 -56 180 -23 72 -43 137 -45 145 -2 8 -42 133 -90 277 l-87 263 -111 102
c-238 221 -282 268 -306 334 -42 115 -50 192 -45 429 3 121 6 240 8 265 7 95
30 512 41 754 7 148 11 170 40 222 29 50 74 89 203 177 97 66 135 96 287 232
39 34 93 82 120 106 54 48 104 92 139 124 13 11 60 54 106 95 81 72 98 88 165
148 17 15 61 54 100 87 38 33 77 67 86 75 75 67 244 210 369 311 57 46 111 90
120 96 226 185 724 540 996 710 26 17 122 76 142 88 10 6 44 26 77 46 33 21
78 47 100 60 458 261 703 369 1076 478 94 27 255 66 319 77 14 2 34 6 45 9 11
2 49 7 85 11 36 3 66 8 68 9 11 10 359 -5 427 -19z"/>
<path d="M3933 9801 c-81 -21 -167 -97 -206 -183 -65 -141 0 -324 143 -403 50
-27 63 -30 145 -30 73 1 98 5 133 23 96 51 165 145 178 244 12 85 -42 227
-105 281 -72 60 -201 90 -288 68z"/>
<path d="M4767 9379 c-156 -24 -279 -184 -264 -345 13 -135 103 -233 250 -270
162 -42 307 41 363 208 52 157 -14 311 -161 379 -67 31 -118 38 -188 28z"/>
<path d="M3513 8991 c-48 -12 -117 -56 -153 -98 -121 -138 -112 -338 21 -443
164 -129 368 -100 473 69 130 208 0 465 -242 477 -37 2 -81 -1 -99 -5z"/>
<path d="M4284 8551 c-80 -32 -140 -86 -175 -160 -34 -69 -33 -178 2 -251 37
-79 84 -129 154 -162 154 -72 348 -2 419 151 30 67 29 189 -2 254 -32 63 -96
127 -157 157 -63 30 -179 36 -241 11z"/>
<path d="M5555 5049 c-432 -42 -754 -468 -692 -916 41 -301 283 -569 584 -647
285 -74 555 -3 756 200 147 149 240 361 239 550 0 94 -4 115 -44 249 -47 153
-90 227 -188 325 -142 142 -303 218 -500 236 -36 3 -69 6 -75 8 -5 1 -41 -1
-80 -5z m235 -334 c197 -65 335 -262 333 -475 -2 -253 -200 -454 -459 -466
-178 -8 -344 82 -431 234 -54 93 -72 162 -68 264 7 218 158 398 380 453 68 16
179 12 245 -10z"/>
</g>
</svg>
